<svg xmlns="http://www.w3.org/2000/svg" viewBox="0 0 32 32">
  <defs>
    <linearGradient id="g" x1="0" y1="0" x2="1" y2="1">
      <stop offset="0%" stop-color="#818cf8"/>
      <stop offset="100%" stop-color="#5eead4"/>
    </linearGradient>
    <linearGradient id="drop" x1="0" y1="0" x2="0" y2="1">
      <stop offset="0%" stop-color="#818cf8"/>
      <stop offset="100%" stop-color="#6366f1"/>
    </linearGradient>
  </defs>
  <rect width="32" height="32" rx="8" fill="#0a0b10"/>
  <!-- Water drop shape -->
  <path d="M16 5 C16 5 9 13 9 18 C9 21.3 12.1 24 16 24 C19.9 24 23 21.3 23 18 C23 13 16 5 16 5Z" fill="url(#drop)" opacity="0.9"/>
  <!-- Snowflake inside drop -->
  <line x1="16" y1="10" x2="16" y2="21" stroke="white" stroke-width="1.4" stroke-linecap="round" opacity="0.9"/>
  <line x1="10.5" y1="14" x2="21.5" y2="19" stroke="white" stroke-width="1.4" stroke-linecap="round" opacity="0.9"/>
  <line x1="21.5" y1="14" x2="10.5" y2="19" stroke="white" stroke-width="1.4" stroke-linecap="round" opacity="0.9"/>
  <!-- Snowflake ticks -->
  <line x1="16" y1="10" x2="13.5" y2="12.5" stroke="white" stroke-width="1" stroke-linecap="round" opacity="0.8"/>
  <line x1="16" y1="10" x2="18.5" y2="12.5" stroke="white" stroke-width="1" stroke-linecap="round" opacity="0.8"/>
  <line x1="10.5" y1="14" x2="11" y2="11.5" stroke="white" stroke-width="1" stroke-linecap="round" opacity="0.8"/>
  <line x1="21.5" y1="14" x2="21" y2="11.5" stroke="white" stroke-width="1" stroke-linecap="round" opacity="0.8"/>
</svg>
